HIERARCHY
ROOT Hips
{
	OFFSET 0.000000 0.000000 0.000000 
	CHANNELS 6 Xposition Yposition Zposition Zrotation Yrotation Xrotation
	JOINT LeftUpLeg
	{
		OFFSET 1.363060 -1.794630 0.839290 
		CHANNELS 3 Zrotation Yrotation Xrotation
		JOINT LeftLeg
		{
			OFFSET 2.448110 -6.726130 0.000000 
			CHANNELS 3 Zrotation Yrotation Xrotation
			JOINT LeftFoot
			{
				OFFSET 2.562200 -7.039590 0.000000 
				CHANNELS 3 Zrotation Yrotation Xrotation
				JOINT LeftToeBase
				{
					OFFSET 0.157640 -0.433110 2.322550 
					CHANNELS 3 Zrotation Yrotation Xrotation
					End Site
					{
						OFFSET 0.000000 0.000000 0.000000 
					}
				}
			}
		}
	}
	JOINT RightUpLeg
	{
		OFFSET -1.305520 -1.794630 0.839290 
		CHANNELS 3 Zrotation Yrotation Xrotation
		JOINT RightLeg
		{
			OFFSET -2.542530 -6.985550 0.000000 
			CHANNELS 3 Zrotation Yrotation Xrotation
			JOINT RightFoot
			{
				OFFSET -2.568260 -7.056230 0.000000 
				CHANNELS 3 Zrotation Yrotation Xrotation
				JOINT RightToeBase
				{
					OFFSET -0.164730 -0.452590 2.363150 
					CHANNELS 3 Zrotation Yrotation Xrotation
					End Site
					{
						OFFSET 0.000000 0.000000 0.000000 
					}
				}
			}
		}
	}
	JOINT Spine
	{
		OFFSET 0.028270 2.035590 -0.193380 
		CHANNELS 3 Zrotation Yrotation Xrotation
		JOINT Spine1
		{
			OFFSET 0.056720 2.048850 -0.042750 
			CHANNELS 3 Zrotation Yrotation Xrotation
			JOINT Neck1
			{
				OFFSET -0.054170 1.746240 0.172020 
				CHANNELS 3 Zrotation Yrotation Xrotation
				JOINT Head
				{
					OFFSET 0.104070 1.761360 -0.123970 
					CHANNELS 3 Zrotation Yrotation Xrotation
					End Site
					{
						OFFSET 0.000000 0.000000 0.000000 
					}
				}
			}
			JOINT LeftArm
			{
				OFFSET 3.362410 1.200890 -0.311210 
				CHANNELS 3 Zrotation Yrotation Xrotation
				JOINT LeftForeArm
				{
					OFFSET 4.983000 -0.000000 -0.000000 
					CHANNELS 3 Zrotation Yrotation Xrotation
					JOINT LeftHand
					{
						OFFSET 3.483560 -0.000000 -0.000000 
						CHANNELS 3 Zrotation Yrotation Xrotation
						JOINT LeftHandIndex1
						{
							OFFSET 0.715260 -0.000000 -0.000000 
							CHANNELS 3 Zrotation Yrotation Xrotation
							End Site
							{
								OFFSET 0.000000 0.000000 0.000000 
							}
						}
					}
				}
			}
			JOINT RightArm
			{
				OFFSET -3.136600 1.374050 -0.404650 
				CHANNELS 3 Zrotation Yrotation Xrotation
				JOINT RightForeArm
				{
					OFFSET -5.241900 -0.000000 -0.000000 
					CHANNELS 3 Zrotation Yrotation Xrotation
					JOINT RightHand
					{
						OFFSET -3.444170 -0.000000 -0.000000 
						CHANNELS 3 Zrotation Yrotation Xrotation
						JOINT RightHandIndex1
						{
							OFFSET -0.622530 -0.000000 -0.000000 
							CHANNELS 3 Zrotation Yrotation Xrotation
							End Site
							{
								OFFSET 0.000000 0.000000 0.000000 
							}
						}
					}
				}
			}
		}
	}
}
MOTION
Frames: 16
Frame Time: 0.041667
-0.651344 17.630399 0.160791 -3.998197 -17.632709 12.195380 -19.124432 23.017282 -52.128049 9.893435 19.174740 46.742843 -13.627276 32.140019 15.467090 0.026600 -1.052000 -2.891800 2.941491 -3.275610 -11.389738 -12.410417 -16.098910 53.917427 13.969118 -34.596391 14.320712 -1.141300 -6.784100 19.077400 0.268152 6.378427 -2.964516 3.387544 3.630836 -7.151024 5.849856 -0.536759 6.286821 2.936700 -0.032400 0.667500 -158.317400 -87.411075 157.642985 131.856776 -47.589198 -100.915301 1.333876 -3.273377 -17.869437 -7.125000 0.000000 0.000000 61.525296 57.688011 74.139839 -29.300999 21.441641 -8.660714 2.178293 2.995684 2.481162 7.125000 0.000000 0.000000 
-0.629526 17.614984 -0.017431 -4.352436 -19.860849 12.582462 -19.330704 23.865766 -52.899835 10.027673 19.235473 46.571880 -13.813997 32.660192 15.675154 0.015800 -0.812800 -2.233900 1.480329 -3.075299 -10.524983 -11.390246 -15.303638 49.362986 13.907927 -35.413910 17.230873 -0.895500 -6.031300 16.875200 0.243932 6.580635 -2.995445 3.269016 3.706510 -7.138019 5.806811 0.043241 6.388585 2.858500 0.247700 0.805600 -158.969310 -88.209506 158.439527 132.884176 -47.000757 -101.534306 1.247233 -3.304909 -16.225424 -7.125000 0.000000 0.000000 64.044016 58.723117 77.524499 -30.798051 22.824211 -9.399825 1.935534 2.948124 2.799402 7.125000 0.000000 0.000000 
-0.610791 17.603008 -0.194941 -4.723500 -22.184935 12.914089 -19.479602 24.738360 -53.561739 10.160968 19.283739 46.365225 -14.031316 33.228853 15.829443 0.006700 -0.528100 -1.451100 0.029156 -2.835760 -9.874554 -10.377420 -14.476438 44.862801 13.419032 -35.902459 20.766452 -0.613800 -5.014200 13.949100 0.216566 6.850871 -3.018071 3.107343 3.818382 -7.018806 5.751131 0.620478 6.488959 2.758100 0.526200 0.933100 -158.455323 -89.268194 158.199316 133.750997 -46.395430 -102.049376 1.174054 -3.329980 -14.741966 -7.125000 0.000000 0.000000 66.677908 59.496935 80.536031 -32.438016 24.534516 -10.332073 1.604721 2.922062 3.248086 7.125000 0.000000 0.000000 
-0.596443 17.595893 -0.372095 -5.117010 -24.558062 13.193332 -19.538321 25.609789 -54.080810 10.288958 19.315498 46.109006 -14.279398 33.842543 15.930659 0.000900 -0.194900 -0.535600 -1.356263 -2.497337 -9.409484 -9.339371 -13.630992 40.547167 12.517946 -35.974876 24.567364 -0.342800 -3.762300 10.408900 0.186611 7.203145 -3.031536 2.901184 3.977725 -6.791431 5.686681 1.172275 6.586730 2.638400 0.792400 1.048200 23.325589 -89.434517 -23.139421 134.520320 -45.734045 -102.501844 1.121048 -3.345402 -13.630998 -7.125000 0.000000 0.000000 69.242366 59.827008 82.998600 -34.313875 26.607856 -11.551146 1.200583 2.918642 3.848516 7.125000 0.000000 0.000000 
-0.588380 17.594707 -0.551739 -5.536413 -26.886519 13.461350 -19.485403 26.431341 -54.459858 10.413946 19.330412 45.784214 -14.558721 34.527450 16.033721 0.000500 0.147000 0.403700 -2.604039 -2.028575 -9.110591 -8.267721 -12.784838 36.539570 11.303171 -35.618144 28.299264 -0.133000 -2.350700 6.475900 0.158166 7.623408 -3.041315 2.664700 4.184865 -6.469458 5.617759 1.685341 6.681771 2.503900 1.039300 1.150500 26.562449 -87.916715 -25.741576 135.220613 -44.986169 -102.922761 1.097579 -3.349288 -12.901097 -7.125000 0.000000 0.000000 71.551256 59.551081 84.779157 -36.543995 29.043600 -13.173957 0.752310 2.930976 4.620130 7.125000 0.000000 0.000000 
-0.587312 17.599095 -0.733399 -5.999565 -29.119868 13.720971 -19.274626 27.171035 -54.661686 10.538965 19.327567 45.391657 -14.862916 35.278928 16.155719 0.005800 0.490200 1.346900 -3.675687 -1.368377 -8.905538 -7.176549 -11.959979 32.928921 9.916060 -34.884783 31.712495 -0.017100 -0.843100 2.317300 0.134195 8.105168 -3.047967 2.404172 4.437272 -6.013783 5.547836 2.161529 6.777198 2.360500 1.268500 1.242200 31.498751 -86.156590 -29.851270 135.826019 -44.135964 -103.334457 1.116288 -3.348809 -12.426727 -7.125000 0.000000 0.000000 73.465818 58.610372 85.826604 -39.264268 31.808879 -15.338258 0.291520 2.949501 5.603669 7.125000 0.000000 0.000000 
-0.594427 17.607040 -0.919091 -6.527132 -31.177496 14.014405 -18.869753 27.778861 -54.689228 10.664927 19.311062 44.944138 -15.161964 36.052470 16.336179 0.016500 0.829500 2.279700 -4.531285 -0.518479 -8.750518 -6.102203 -11.185077 29.765883 8.519392 -33.914620 34.639987 -0.008900 0.610700 -1.678300 0.119996 8.624504 -3.055111 2.137147 4.726222 -5.348674 5.478461 2.609736 6.881656 2.214700 1.484500 1.337900 38.425626 -84.055775 -35.803730 136.249349 -43.182627 -103.742890 1.183620 -3.366226 -11.959202 -7.125000 0.000000 0.000000 74.916474 57.014944 86.161940 -42.623411 34.846105 -18.210638 -0.158979 2.967808 6.766013 7.125000 0.000000 0.000000 
-0.609842 17.615221 -1.108696 -7.141859 -33.000040 14.372047 -18.238583 28.217338 -54.541724 10.795056 19.287521 44.470829 -15.420593 36.789235 16.603970 0.032500 1.163300 3.198400 -5.154672 0.486310 -8.602980 -5.081763 -10.487202 27.055848 7.250331 -32.873903 36.996353 -0.091300 1.949100 -5.365000 0.118749 9.171166 -3.063270 1.877165 5.051973 -4.334248 5.407332 3.048706 6.996106 2.069700 1.697300 1.437300 47.616249 -81.335239 -43.941786 136.355881 -42.116045 -104.162000 1.286347 -3.433447 -11.200728 -7.125000 0.000000 0.000000 75.932589 54.864639 85.920834 -46.770378 38.062068 -21.975105 -0.574460 2.977671 7.943685 7.125000 0.000000 0.000000 
-0.632846 17.619609 -1.301502 -7.843765 -34.522194 14.807636 -17.364640 28.450088 -54.222657 10.928757 19.264517 44.012380 -15.590639 37.396032 16.982424 0.054300 1.503700 4.136000 -5.544862 1.554391 -8.445314 -4.151677 -9.891799 24.766649 6.192244 -31.957892 38.811800 -0.236300 3.128600 -8.637100 0.131472 9.768359 -3.073777 1.656576 5.443718 -2.760447 5.324072 3.505691 7.135983 1.933000 1.920500 1.551600 59.068619 -77.313306 -54.447864 136.038317 -40.920477 -104.655859 1.352557 -3.566430 -10.156761 -7.125000 0.000000 0.000000 76.570154 52.112191 85.222605 -51.911274 41.376371 -26.886526 -0.941474 2.962286 8.896516 7.125000 0.000000 0.000000 
-0.662609 17.617356 -1.496917 -8.604845 -35.681476 15.324826 -16.270320 28.464416 -53.758208 11.071102 19.244609 43.602739 -15.638412 37.813693 17.502626 0.079700 1.821000 5.011100 -5.706101 2.581129 -8.282328 -3.328451 -9.414589 22.849758 5.431925 -31.333274 40.047646 -0.452400 4.315200 -11.965100 0.155329 10.508751 -3.088232 1.532580 5.976259 -0.319645 5.209688 3.989268 7.308334 1.797200 2.159200 1.693700 71.164974 -70.704236 -66.476537 135.525996 -39.962188 -105.301016 1.175264 -3.744950 -9.196483 -7.125000 0.000000 0.000000 76.876362 48.971719 84.228853 -58.110834 44.547016 -33.046474 -1.239568 2.902661 9.288957 7.125000 0.000000 0.000000 
-0.697826 17.606091 -1.693518 -9.371849 -36.449882 15.895005 -15.010805 28.255084 -53.189283 11.228144 19.233070 43.267026 -15.550357 38.024887 18.189659 0.103500 2.074400 5.711300 -5.656027 3.428107 -8.134995 -2.636941 -9.060287 21.250524 5.068740 -31.228736 40.659546 -0.772400 5.611800 -15.662000 0.200810 11.371784 -3.127638 1.590389 6.642193 2.647412 5.052540 4.507269 7.511360 1.656100 2.416700 1.877800 79.238991 -62.040785 -77.502305 135.765825 -40.638527 -106.196948 0.227588 -4.112832 -8.841889 -7.125000 0.000000 0.000000 76.919398 45.328418 82.981886 -65.378448 47.357806 -40.435949 -1.448573 2.768118 8.839335 7.125000 0.000000 0.000000 
-0.737431 17.585221 -1.889408 -10.674281 -38.617001 16.443990 -13.753453 27.962252 -52.729160 11.240370 19.507592 42.983909 -15.260080 38.091788 18.980569 0.122600 2.257400 6.217400 -5.730495 4.172643 -7.706878 -2.345339 -8.541049 20.012926 5.411053 -31.557408 40.623038 -1.225300 7.020600 -19.776400 0.377179 8.205858 -3.134512 1.955551 4.137753 -6.737972 5.438626 5.029352 7.798593 1.500700 2.695900 2.107300 -37.732770 -59.659636 66.570303 124.564225 -20.357702 -105.819471 -1.223785 -2.061742 -8.495150 -7.125000 0.000000 0.000000 76.730861 39.299559 81.264774 -73.449668 49.393293 -48.763583 -1.627215 2.615514 7.401827 7.125000 0.000000 0.000000 
-0.780830 17.556407 -2.084348 -11.422574 -39.247898 16.963931 -12.420480 27.420047 -52.128927 11.373496 19.607327 42.840101 -14.840974 37.802541 19.995415 0.130700 2.330500 6.419900 -5.448061 4.456086 -7.525360 -1.962097 -8.287218 18.959548 6.087892 -32.685275 39.739548 -1.776400 8.384000 -23.886700 0.407995 8.083337 -3.108901 1.842662 4.048318 -6.788152 5.342108 5.651261 7.978743 1.329200 2.995700 2.380900 -39.190537 -53.840234 60.777468 124.953081 -25.613917 -105.276682 -0.672116 -1.408465 -9.794076 -7.125000 0.000000 0.000000 76.450199 34.479303 79.254698 -81.907284 51.087260 -57.440761 -1.718924 2.372819 4.909367 7.125000 0.000000 0.000000 
-0.828261 17.521071 -2.275732 -12.006169 -39.705626 17.377802 -11.121684 26.755663 -51.536436 11.489139 19.731432 42.820514 -14.198995 37.158025 21.234977 0.121500 2.247400 6.189800 -5.073573 4.378323 -7.376901 -1.715775 -8.100398 18.097185 7.327540 -34.360228 38.077482 -2.361300 9.581200 -27.631000 0.444347 7.848007 -3.087828 1.736777 3.882712 -6.782988 5.246102 6.287416 8.217833 1.149200 3.310500 2.684900 -40.698108 -48.040838 55.628686 124.552104 -30.286096 -104.589938 -0.576965 -1.079568 -13.271927 -7.125000 0.000000 0.000000 76.098739 29.444914 76.723817 -90.315916 52.309426 -65.804261 -1.762414 2.079612 1.383412 7.125000 0.000000 0.000000 
-0.879605 17.479213 -2.463439 -12.383430 -39.999532 17.665612 -9.896654 26.008236 -50.983573 11.585009 19.878168 42.937891 -13.320473 36.105842 22.699459 0.093100 1.968400 5.418300 -4.627748 3.973303 -7.268251 -1.559103 -7.943041 17.397818 9.026098 -36.326829 35.705124 -2.830000 10.414700 -30.330400 0.506177 7.479288 -3.071799 1.804682 3.692364 -6.679993 5.153617 6.936743 8.449775 0.960400 3.633800 2.997700 -42.170089 -42.447492 50.692422 123.111414 -34.739454 -103.427274 -0.308944 -0.827263 -18.950692 -7.125000 0.000000 0.000000 75.513583 24.125141 73.731623 -98.364671 52.945487 -73.417949 -1.779998 1.794478 -3.208539 7.125000 0.000000 0.000000 
-0.935099 17.431190 -2.647352 -12.583464 -40.143506 17.843546 -8.761790 25.221568 -50.493893 11.649844 20.034026 43.203747 -12.225599 34.597606 24.291871 0.054800 1.510300 4.154200 -4.129563 3.327236 -7.197077 -1.437719 -7.778062 16.829668 10.978119 -38.249773 32.805282 -3.104800 10.862800 -31.818500 0.573662 7.014464 -3.066952 1.839634 3.478082 -6.532188 5.071096 7.558775 8.656044 0.779800 3.946700 3.300100 -43.519331 -37.189321 45.683591 120.151059 -39.345201 -101.538519 0.325664 -0.800426 -26.065220 -7.125000 0.000000 0.000000 74.828120 18.597851 70.410472 -105.634783 52.951587 -79.926869 -1.765127 1.557290 -8.910732 7.125000 0.000000 0.000000 
